<svg xmlns="http://www.w3.org/2000/svg" viewBox="0 0 512 512"><!--!Font Awesome Free 6.7.2 by @fontawesome - https://fontawesome.com License - https://fontawesome.com/license/free Copyright 2025 Fonticons, Inc.--><path fill="#10b981" d="M448 256c0-106-86-192-192-192S64 150 64 256s86 192 192 192 192-86 192-192z"/><path d="M256 512A256 256 0 1 0 256 0a256 256 0 1 0 0 512zm-32.9-195.9l46.2 16.9 46.2-16.9 14.1-47.5-30.8-39.2-14.7 5.4-2.2-6.5L256 161l-26 67.3-2.2 6.5-14.7-5.4-30.8 39.2 14.1 47.5zM388.9 333l-59.9-21.9-21.6 72.5 35.8 45.4 39.4 6.6 6.3 35.7C464.3 421.1 512 344.2 512 256c0-23.7-3.5-46.6-9.9-68.2l-64.8 28.3-23.1 76.6 30.6 38.8-55.9 1.5zM226.7 383.6L205 311.1l-59.9 21.9-55.9-1.5 30.6-38.8-23.1-76.6L32 187.8C25.5 209.4 22 232.3 22 256c0 88.2 47.7 165.1 120.9 215.1l6.3-35.7 39.4-6.6 35.8-45.4 2.3 .2zm75.4 56.4l-35.8-45.4-10.4 3.8-10.4-3.8-35.8 45.4-8.8 49.6C222.6 502.5 239 508 256 508s33.4-5.5 55.1-15.5l-8.8-49.6zM256 59.1c-34.9 0-67.9 7.6-97.6 21.2l39 63.8 28.1 4.9 14.7 5.4 15.7-40.8 15.7 40.8 14.7-5.4 28.1-4.9 39-63.8C323.9 66.7 290.9 59.1 256 59.1zM115.4 162.1l64.8-28.3L154.5 95l-33.8-5.9-46.2 16.9-39.7-41.2C13.2 119.5 0 185.7 0 256c0 5 .1 10 .3 14.9l76.5 13.5 13.3-43.9 25.3-78.4zm234.5-67.1l-25.7 38.8 64.8 28.3 25.3 78.4 13.3 43.9L511.7 271c.2-4.9 .3-9.9 .3-14.9 0-70.3-13.2-136.5-36.8-191.2l-39.7 41.2-46.2-16.9-33.8 5.9z"/></svg>
