<svg xmlns="http://www.w3.org/2000/svg" viewBox="0 0 64 64">
  <!-- White Background Circle -->
  <circle cx="32" cy="32" r="30" fill="#ffffff" stroke="#10b981" stroke-width="2"/>
  
  <!-- Central Black Pentagon -->
  <polygon points="32,16 42,24 38,36 26,36 22,24" fill="#000000"/>
  
  <!-- Connecting Lines to Edges -->
  <line x1="32" y1="16" x2="32" y2="2" stroke="#000000" stroke-width="3" stroke-linecap="round"/>
  <line x1="42" y1="24" x2="56" y2="18" stroke="#000000" stroke-width="3" stroke-linecap="round"/>
  <line x1="38" y1="36" x2="50" y2="50" stroke="#000000" stroke-width="3" stroke-linecap="round"/>
  <line x1="26" y1="36" x2="14" y2="50" stroke="#000000" stroke-width="3" stroke-linecap="round"/>
  <line x1="22" y1="24" x2="8" y2="18" stroke="#000000" stroke-width="3" stroke-linecap="round"/>
  
  <!-- Edge Patches (Approximated) -->
  <path d="M 32 2 Q 45 2 56 18" fill="none" stroke="none"/> <!-- invisible guide -->
  <path d="M 56 18 L 62 25 L 62 10 Z" fill="#000000"/>
  <path d="M 8 18 L 2 25 L 2 10 Z" fill="#000000"/>
  <path d="M 14 50 L 22 58 L 5 58 Z" fill="#000000"/>
  <path d="M 50 50 L 42 58 L 59 58 Z" fill="#000000"/>
</svg>
